<svg xmlns="http://www.w3.org/2000/svg" viewBox="0 350 3724 760">
<g transform="translate(0,1078)">
<path d="M320 459H314Q305 431 294.0 398.0Q283 365 271.0 328.5Q259 292 248 253L226 140Q220 120 215.5 101.0Q211 82 206.5 65.0Q202 48 198.0 32.0Q194 16 190 1Q177 -3 161.0 -7.0Q145 -11 123 -11Q73 -11 48.0 6.5Q23 24 23 55Q23 69 27.0 83.0Q31 97 36 116Q44 148 60.0 198.5Q76 249 95.5 307.5Q115 366 134.5 422.0Q154 478 170.0 522.5Q186 567 194 588Q211 598 246.0 607.0Q281 616 315 616Q365 616 404.0 601.5Q443 587 453 555Q471 504 491.5 435.5Q512 367 533.5 292.5Q555 218 575.0 147.5Q595 77 610 21Q598 8 574.0 -1.0Q550 -10 517 -10Q468 -10 449.0 6.5Q430 23 421 57L396 153L376 256Q366 295 356.0 331.0Q346 367 337.0 399.5Q328 432 320 459ZM151 126 220 261H440L461 126Z" transform="translate(0,0) scale(1,-1)" fill="#E7C76E"/><path d="M363 131V421H532V107Q532 82 521.5 64.0Q511 46 488 32Q459 13 413.0 -1.5Q367 -16 308 -16Q221 -16 159.0 13.0Q97 42 64.0 99.5Q31 157 31 241Q31 329 65.0 386.5Q99 444 157.5 472.5Q216 501 288 501Q323 501 349.0 494.0Q375 487 392 478V340Q379 350 358.5 359.0Q338 368 312 368Q278 368 253.5 354.0Q229 340 216.0 312.0Q203 284 203 241Q203 178 230.5 148.0Q258 118 307 118Q325 118 340.0 122.5Q355 127 363 131ZM532 389H362V652Q373 655 393.5 658.0Q414 661 438 661Q488 661 510.0 644.5Q532 628 532 581Z" transform="translate(627,0) scale(1,-1)" fill="#E7C76E"/>
<path d="M251 124Q300 124 320.0 140.0Q340 156 340 176Q340 196 324.0 207.5Q308 219 279 229L237 243Q179 263 134.5 285.5Q90 308 65.0 344.0Q40 380 40 438Q40 523 105.5 574.0Q171 625 289 625Q347 625 392.0 614.0Q437 603 463.0 580.5Q489 558 489 523Q489 498 477.0 479.0Q465 460 448 447Q426 461 389.0 471.5Q352 482 308 482Q263 482 242.0 469.5Q221 457 221 438Q221 423 234.5 413.5Q248 404 273 396L326 379Q421 349 471.0 301.5Q521 254 521 174Q521 89 453.5 35.5Q386 -18 257 -18Q196 -18 147.0 -5.0Q98 8 69.0 34.0Q40 60 40 97Q40 126 57.0 146.5Q74 167 94 178Q122 156 162.5 140.0Q203 124 251 124Z" transform="translate(1213,0) scale(1,-1)" fill="#A8192E"/><path d="M260 108Q277 108 297.5 111.5Q318 115 328 121V201L256 195Q228 193 210.0 183.0Q192 173 192 153Q192 133 207.5 120.5Q223 108 260 108ZM252 501Q361 501 426.5 456.5Q492 412 492 318V94Q492 68 477.5 51.5Q463 35 443 23Q411 4 365.0 -6.0Q319 -16 260 -16Q155 -16 91.5 24.5Q28 65 28 147Q28 216 69.5 253.0Q111 290 196 299L327 313V320Q327 349 301.5 361.5Q276 374 228 374Q191 374 154.5 366.0Q118 358 89 346Q76 355 67.0 373.5Q58 392 58 412Q58 460 109 480Q138 491 177.5 496.0Q217 501 252 501Z" transform="translate(1764,0) scale(1,-1)" fill="#A8192E"/><path d="M322 501Q388 501 442.0 472.0Q496 443 527.5 386.0Q559 329 559 245Q559 162 525.5 103.5Q492 45 431.0 14.5Q370 -16 288 -16Q222 -16 176.0 0.0Q130 16 98 38Q77 53 65.5 73.0Q54 93 54 118V430H223V133Q234 127 249.5 122.5Q265 118 286 118Q331 118 358.0 150.5Q385 183 385 245Q385 309 359.5 338.5Q334 368 290 368Q260 368 237.0 357.0Q214 346 197 333V470Q220 482 252.0 491.5Q284 501 322 501ZM224 389H54V652Q65 655 85.5 658.0Q106 661 130 661Q180 661 202.0 644.5Q224 628 224 581Z" transform="translate(2308,0) scale(1,-1)" fill="#A8192E"/><path d="M260 108Q277 108 297.5 111.5Q318 115 328 121V201L256 195Q228 193 210.0 183.0Q192 173 192 153Q192 133 207.5 120.5Q223 108 260 108ZM252 501Q361 501 426.5 456.5Q492 412 492 318V94Q492 68 477.5 51.5Q463 35 443 23Q411 4 365.0 -6.0Q319 -16 260 -16Q155 -16 91.5 24.5Q28 65 28 147Q28 216 69.5 253.0Q111 290 196 299L327 313V320Q327 349 301.5 361.5Q276 374 228 374Q191 374 154.5 366.0Q118 358 89 346Q76 355 67.0 373.5Q58 392 58 412Q58 460 109 480Q138 491 177.5 496.0Q217 501 252 501Z" transform="translate(2898,0) scale(1,-1)" fill="#A8192E"/><path d="M48 621Q48 659 74.0 685.0Q100 711 141 711Q182 711 208.0 685.0Q234 659 234 621Q234 584 208.0 557.5Q182 531 141 531Q100 531 74.0 557.5Q48 584 48 621ZM56 264H226V1Q215 -2 194.5 -5.0Q174 -8 150 -8Q101 -8 78.5 9.0Q56 26 56 72ZM226 175H56V479Q67 482 87.5 485.0Q108 488 132 488Q182 488 204.0 471.5Q226 455 226 408Z" transform="translate(3442,0) scale(1,-1)" fill="#A8192E"/>
</g>
</svg>
